<?xml version="1.0" encoding="UTF-8" standalone="no"?>
<!-- Created with Inkscape (http://www.inkscape.org/) -->

<svg
   xmlns:dc="http://purl.org/dc/elements/1.1/"
   xmlns:cc="http://creativecommons.org/ns#"
   xmlns:rdf="http://www.w3.org/1999/02/22-rdf-syntax-ns#"
   xmlns:svg="http://www.w3.org/2000/svg"
   xmlns="http://www.w3.org/2000/svg"
   xmlns:sodipodi="http://sodipodi.sourceforge.net/DTD/sodipodi-0.dtd"
   xmlns:inkscape="http://www.inkscape.org/namespaces/inkscape"
   width="210mm"
   height="297mm"
   id="svg4345"
   version="1.1"
   inkscape:version="0.48.3.1 r9886"
   sodipodi:docname="pp-simple.svg"
   inkscape:export-filename="/home/nico/Documents/PP/pux-simple.png"
   inkscape:export-xdpi="90"
   inkscape:export-ydpi="90">
  <defs
     id="defs4347" />
  <sodipodi:namedview
     id="base"
     pagecolor="#ffffff"
     bordercolor="#666666"
     borderopacity="1.0"
     inkscape:pageopacity="0.0"
     inkscape:pageshadow="2"
     inkscape:zoom="0.35"
     inkscape:cx="-179.28571"
     inkscape:cy="520"
     inkscape:document-units="px"
     inkscape:current-layer="g2997"
     showgrid="false"
     inkscape:window-width="1280"
     inkscape:window-height="744"
     inkscape:window-x="0"
     inkscape:window-y="27"
     inkscape:window-maximized="1" />
  <metadata
     id="metadata4350">
    <rdf:RDF>
      <cc:Work
         rdf:about="">
        <dc:format>image/svg+xml</dc:format>
        <dc:type
           rdf:resource="http://purl.org/dc/dcmitype/StillImage" />
        <dc:title></dc:title>
      </cc:Work>
    </rdf:RDF>
  </metadata>
  <g
     inkscape:label="Calque 1"
     inkscape:groupmode="layer"
     id="layer1">
    <g
       id="g2997"
       transform="matrix(0.53115792,-0.00640185,0.00640185,0.53115792,250.72918,410.92634)"
       style="display:inline">
      <rect
         style="fill:#ffffff;fill-opacity:1;stroke:#ffffff;stroke-opacity:1"
         id="rect4934"
         width="265.71429"
         height="274.28568"
         x="240"
         y="395.21933"
         transform="matrix(1.8824058,0.02268794,-0.02268794,1.8824058,-462.65099,-779.21866)" />
      <path
         d="M 231.17299,451.91098 C 109.39398,451.91098 10.673,353.19001 10.673,231.411 c 0,-121.77795 98.72098,-220.500001 220.49999,-220.500001 121.77901,0 220.49999,98.722051 220.49999,220.500001 0,121.78007 -98.72098,220.49998 -220.49999,220.49998 z"
         id="path2827-27"
         style="fill:#ffffff;stroke:#080505;stroke-width:22;stroke-miterlimit:4;stroke-opacity:1;stroke-dasharray:none;fill-opacity:0"
         inkscape:connector-curvature="0" />
      <path
         d="m 120.805,110.043 c 24.267,-7.07 126.586,6.86 105.678,105.837 -7.609,36.019 -49.357,53.566 -69.592,68.72 -47.901,35.873 -6.648,121.071 -6.648,121.071 0,0 -22.318,-66.267 27.382,-97.619 C 223.352,279.206 380.998,292.759 380.456,203.786 379.417,33.321 113.795,94.816 120.805,110.043 z"
         id="path8-79"
         inkscape:connector-curvature="0" />
      <rect
         width="20.208"
         height="250.63"
         x="141.205"
         y="61.290001"
         id="rect10-3" />
      <text
         xml:space="preserve"
         style="font-size:75.30170441px;font-style:normal;font-weight:normal;line-height:125%;letter-spacing:0px;word-spacing:0px;fill:#000000;fill-opacity:1;stroke:none;font-family:Sans"
         x="232.60045"
         y="384.59027"
         id="text4930"
         sodipodi:linespacing="125%"
         transform="matrix(0.99992737,0.01205175,-0.01205175,0.99992737,0,0)"><tspan
           sodipodi:role="line"
           id="tspan4932"
           x="232.60045"
           y="384.59027"
           style="font-weight:bold;-inkscape-font-specification:Sans Bold">UX</tspan></text>
    </g>
  </g>
</svg>
